<?xml version="1.0" standalone="no"?><!DOCTYPE svg PUBLIC "-//W3C//DTD SVG 1.1//EN" "http://www.w3.org/Graphics/SVG/1.1/DTD/svg11.dtd"><svg t="1708240567845" class="icon" viewBox="0 0 1204 1024" version="1.1" xmlns="http://www.w3.org/2000/svg" p-id="1816" width="235.15625" height="200" xmlns:xlink="http://www.w3.org/1999/xlink"><path d="M92.767156 954.361415c-0.818541-1.044414-0.795493-1.067462 0.248921-0.248921 1.097096 0.860687 1.445453 1.401332 0.903491 1.401332-0.136314 0-0.655228-0.518256-1.152412-1.152411z m-13.477947-13.499679l-1.254482-1.481672 1.481672 1.254483c1.392113 1.178752 1.781299 1.708862 1.254482 1.708861-0.125119 0-0.791542-0.666423-1.481672-1.481672zM10.03059 752.689389c0-1.267653 0.135655-1.785909 0.300944-1.152412 0.165947 0.634156 0.165947 1.671326 0 2.304824-0.165289 0.634156-0.300944 0.115241-0.300944-1.152412z m0-45.437942c0-1.267653 0.135655-1.785909 0.300944-1.152412 0.165947 0.634156 0.165947 1.671326 0 2.304824-0.165289 0.634156-0.300944 0.115241-0.300944-1.152412z m361.869088-17.597654c1.177435-0.146192 3.103609-0.146192 4.280386 0 1.177435 0.145533 0.214019 0.265384-2.140193 0.265384s-3.31697-0.119851-2.140193-0.265384zM151.733093 418.160772c0-6.70045 0.09812-9.441873 0.217312-6.091319 0.119851 3.350554 0.119851 8.832082 0 12.182637-0.119192 3.350554-0.217312 0.609132-0.217312-6.091318zM11.905399 677.89261c0.031609-0.767177 0.187678-0.923246 0.397747-0.397747 0.190313 0.474794 0.166606 1.043097-0.052023 1.261726-0.218629 0.218629-0.37404-0.169898-0.345724-0.863979z m212.295944-45.877176l-3.267581-3.457235 3.457235 3.267581c3.212265 3.037098 3.759496 3.646889 3.26758 3.646889-0.104046 0-1.659473-1.555426-3.457234-3.457235z m467.819833-81.985852c-0.818541-1.044414-0.795493-1.067462 0.24892-0.248921 0.634156 0.497183 1.152412 1.016098 1.152412 1.152412 0 0.541963-0.540646 0.193605-1.401332-0.903491z m59.925401-186.361415c-0.818541-1.044414-0.795493-1.067462 0.248921-0.248921 0.634156 0.497183 1.152412 1.016098 1.152412 1.152412 0 0.541963-0.540646 0.193605-1.401333-0.903491z m15.804502-28.974919c-0.818541-1.044414-0.795493-1.067462 0.248921-0.248921 1.097096 0.860687 1.446112 1.401332 0.903491 1.401332-0.136314 0-0.655228-0.518256-1.152412-1.152411z" p-id="1817" fill="#1843bf"></path><path d="M247.439228 1020.271455c0.453062-0.183069 1.193898-0.183069 1.646303 0 0.453062 0.18241 0.082315 0.331895-0.823152 0.331894s-1.276214-0.149484-0.823151-0.331894zM86.230678 947.776206l-2.269263-2.469454 2.469453 2.269263c1.358529 1.248556 2.469453 2.35948 2.469454 2.469454 0 0.50311-0.557109 0.028975-2.669644-2.269263z m-4.307385-4.280386l-1.254483-1.481672 1.481672 1.254482c1.392113 1.178752 1.781299 1.708862 1.254483 1.708862-0.125119 0-0.791542-0.666423-1.481672-1.481672zM10.588358 695.672674c0.031609-0.767177 0.187678-0.923246 0.397746-0.397747 0.190313 0.474794 0.166606 1.043097-0.052023 1.261726-0.218629 0.218629-0.37404-0.169898-0.345723-0.863979z m358.060203-5.99254c0.474794-0.190313 1.043097-0.166606 1.261726 0.052023 0.218629 0.218629-0.169898 0.374698-0.86398 0.345723-0.767177-0.031609-0.923246-0.187678-0.398405-0.397746z m-11.853376-0.658521c0.474794-0.190313 1.043097-0.166606 1.261726 0.052023 0.218629 0.218629-0.169898 0.374698-0.86398 0.345723-0.767177-0.031609-0.923246-0.187678-0.398405-0.397746z m-6.585209-0.658521c0.474794-0.190313 1.043097-0.166606 1.261726 0.052023 0.218629 0.218629-0.169898 0.374698-0.86398 0.345724-0.767177-0.031609-0.923246-0.187678-0.398405-0.397747zM219.236754 627.076527l-1.596255-1.810932 1.810933 1.596255c1.692399 1.492208 2.113194 2.02561 1.596254 2.02561-0.117875 0-0.932466-0.815249-1.810932-1.810933z m622.89887-36.218649c45.755349-0.09351 120.431619-0.09351 165.947267 0 45.516306 0.09351 8.080051 0.169898-83.190945 0.169898s-128.511012-0.076388-82.756322-0.169898zM198.267473 460.580713c0.031609-0.767177 0.187678-0.923246 0.397746-0.398406 0.190313 0.475452 0.166606 1.043756-0.052023 1.262385-0.218629 0.218629-0.37404-0.169898-0.345723-0.863979zM152.222374 445.81865c0-0.905466 0.149484-1.276214 0.331895-0.823152 0.183069 0.453062 0.183069 1.193898 0 1.646303-0.18241 0.453062-0.331895 0.082315-0.331895-0.823151z m-0.583449-13.170418c0-1.629839 0.128412-2.296262 0.285798-1.481673 0.156728 0.815249 0.156728 2.148754 0 2.963345-0.157386 0.815249-0.285798 0.148167-0.285798-1.481672z m-0.127095-30.67588c0.031609-0.767177 0.187678-0.923246 0.397747-0.398405 0.190313 0.475452 0.166606 1.043756-0.052023 1.262385-0.218629 0.218629-0.37404-0.169898-0.345724-0.86398z m0.658521-10.536334c0.031609-0.767177 0.187678-0.923246 0.397747-0.398405 0.190313 0.475452 0.166606 1.043756-0.052023 1.262384-0.218629 0.218629-0.37404-0.169898-0.345724-0.863979z m46.096463-13.828939c0.031609-0.767177 0.187678-0.923246 0.397747-0.398405 0.190313 0.475452 0.166606 1.043756-0.052023 1.262385-0.218629 0.218629-0.37404-0.169898-0.345724-0.86398zM11.246878 770.744057c0.031609-0.767177 0.187678-0.923246 0.397747-0.397747 0.190313 0.474794 0.166606 1.043097-0.052023 1.261726-0.218629 0.218629-0.37404-0.169898-0.345724-0.863979zM11.298902 687.49582c0-0.905466 0.149484-1.276214 0.331894-0.823151 0.183069 0.453062 0.183069 1.193898 0 1.646302-0.18241 0.453062-0.331895 0.082315-0.331894-0.823151z m0.605839-6.969127c0.032268-0.767177 0.188337-0.923246 0.398405-0.397746 0.190313 0.474794 0.166606 1.043097-0.052023 1.261726-0.218629 0.218629-0.37404-0.169898-0.345724-0.86398z m140.923473-224.555627c0.032268-0.767177 0.188337-0.923246 0.398405-0.398405 0.190313 0.475452 0.166606 1.043756-0.052024 1.262385-0.218629 0.218629-0.37404-0.169898-0.345723-0.86398z m44.1209-9.877813c0.032268-0.767177 0.188337-0.923246 0.398405-0.398405 0.190313 0.475452 0.166606 1.043756-0.052023 1.262384-0.218629 0.218629-0.37404-0.169898-0.345724-0.863979zM151.564512 404.331833c0-0.905466 0.149484-1.276214 0.331894-0.823151 0.183069 0.453062 0.183069 1.193898 0 1.646302-0.18241 0.453062-0.331895 0.082315-0.331894-0.823151z m45.385919-10.920252c0.031609-0.767177 0.187678-0.923246 0.397746-0.398405 0.190313 0.475452 0.166606 1.043756-0.052023 1.262384-0.218629 0.218629-0.37404-0.169898-0.345723-0.863979z m578.737801-50.816083l-1.596255-1.810932 1.810932 1.596255c0.995684 0.878467 1.810932 1.693057 1.810933 1.810932 0 0.516939-0.533402 0.096144-2.02561-1.596255z m-3.951126-3.951125l-1.596255-1.810932 1.810933 1.596254c0.995684 0.878467 1.810932 1.693057 1.810932 1.810933 0 0.516939-0.533402 0.096144-2.02561-1.596255z" p-id="1818" fill="#1843bf"></path><path d="M250.415084 1020.251041c0.640741-0.167264 1.529744-0.156069 1.975563 0.024365 0.445819 0.180435-0.078364 0.316749-1.164924 0.303578-1.086559-0.01317-1.45138-0.160679-0.810639-0.327943z m-238.509685-244.897338c0.031609-0.767177 0.187678-0.923246 0.397747-0.397747 0.190313 0.474794 0.166606 1.043097-0.052023 1.261726-0.218629 0.218629-0.37404-0.169898-0.345724-0.863979zM11.298902 768.493891c0-0.905466 0.149484-1.276214 0.331894-0.823151 0.183069 0.453062 0.183069 1.193898 0 1.646302-0.18241 0.453062-0.331895 0.082315-0.331894-0.823151z m0-78.363987c0-0.905466 0.149484-1.276214 0.331894-0.823152 0.183069 0.453062 0.183069 1.193898 0 1.646303-0.18241 0.453062-0.331895 0.082315-0.331894-0.823151z m343.520061-1.108291c0.475452-0.190313 1.043756-0.166606 1.262385 0.052023 0.218629 0.218629-0.169898 0.374698-0.86398 0.345723-0.767177-0.031609-0.923246-0.187678-0.398405-0.397746z m-11.853376-1.317042c0.475452-0.190313 1.043756-0.166606 1.262385 0.052023 0.218629 0.218629-0.169898 0.374698-0.86398 0.345724-0.767177-0.031609-0.923246-0.187678-0.398405-0.397747z m-331.060188-5.202315c0.031609-0.767177 0.187678-0.923246 0.397747-0.397747 0.190313 0.474794 0.166606 1.043097-0.052023 1.261726-0.218629 0.218629-0.37404-0.169898-0.345724-0.863979zM343.089389 644.433163c0-0.142241 0.459648-0.435282 1.022025-0.651277 0.586084-0.224556 0.85015-0.113924 0.619009 0.258798-0.385893 0.625595-1.641034 0.92588-1.641034 0.392479z m-112.032844-5.503259c-0.818541-1.044414-0.795493-1.067462 0.248921-0.248921 0.634156 0.497183 1.152412 1.016098 1.152412 1.152411 0 0.541963-0.540646 0.193605-1.401333-0.90349z m-14.487459-14.48746c-0.818541-1.044414-0.795493-1.067462 0.24892-0.248921 0.634156 0.497183 1.152412 1.016098 1.152412 1.152411 0 0.541963-0.540646 0.193605-1.401332-0.90349z m-7.24373-8.560772c-0.818541-1.044414-0.795493-1.067462 0.248921-0.248921 0.634156 0.497183 1.152412 1.016098 1.152411 1.152412 0 0.541963-0.540646 0.193605-1.401332-0.903491z m50.445993-21.401929l-5.253021-5.432798 5.432797 5.253022c2.987709 2.888931 5.432797 5.334019 5.432798 5.432797 0 0.480062-0.734251-0.207434-5.612574-5.253021z m-9.617698-10.207074c-0.818541-1.044414-0.795493-1.067462 0.248921-0.248921 0.634156 0.497183 1.152412 1.016098 1.152412 1.152411 0 0.541963-0.540646 0.193605-1.401333-0.90349z m436.312901-39.840515l-1.934076-2.140193 2.140193 1.934076c1.995318 1.80303 2.443113 2.34631 1.934076 2.34631-0.113266 0-1.076023-0.962758-2.140193-2.140193z m-5.590843-5.597427l-2.269921-2.469454 2.469453 2.269263c1.358529 1.248556 2.469453 2.35948 2.469454 2.469454 0 0.50311-0.557109 0.028975-2.669644-2.269263z m-523.437191-47.303532c0.031609-0.767177 0.187678-0.923246 0.397747-0.398405 0.190313 0.475452 0.166606 1.043756-0.052023 1.262384-0.218629 0.218629-0.37404-0.169898-0.345724-0.863979zM153.539416 463.598714c0-0.905466 0.149484-1.276214 0.331895-0.823151 0.183069 0.453062 0.183069 1.193898 0 1.646302-0.18241 0.453062-0.331895 0.082315-0.331895-0.823151z m44.169631-11.194855c0-1.267653 0.135655-1.785909 0.300944-1.152412 0.165947 0.634156 0.165947 1.671326 0 2.304823-0.165289 0.634156-0.300944 0.115241-0.300944-1.152411z m-45.538696-3.676523c0.031609-0.767177 0.187678-0.923246 0.397747-0.398405 0.190313 0.475452 0.166606 1.043756-0.052023 1.262385-0.218629 0.218629-0.37404-0.169898-0.345724-0.86398z m44.27236-18.383928c0.00461-2.173119 0.127095-2.9831 0.273945-1.799079 0.146192 1.183362 0.143558 2.961368-0.006585 3.951126-0.150801 0.989757-0.269994 0.021073-0.266701-2.152047z m437.32373-9.219292c0-6.15717 0.098778-8.764913 0.219946-5.794984 0.121826 2.970588 0.122485 8.008273 0.001317 11.194855-0.121168 3.187241-0.220605 0.757299-0.221263-5.399871z m-437.32373-9.877814c0.00461-2.173119 0.127095-2.9831 0.273945-1.799079 0.146192 1.183362 0.143558 2.961368-0.006585 3.951126-0.150801 0.989757-0.269994 0.021073-0.266701-2.152047zM1007.866238 397.746624l-195.580707-0.332553 195.745337-0.163313c130.166534-0.107997 195.745338 0.05795 195.745338 0.495866 0 0.362186-0.074413 0.585425-0.16463 0.495208-0.090876-0.089559-88.175949-0.312139-195.745338-0.495208zM144.216077 396.180661c0-0.136314 0.518256-0.655228 1.152412-1.152411 1.044414-0.818541 1.067462-0.795493 0.248921 0.24892-0.860687 1.097096-1.401332 1.445453-1.401333 0.903491z m4.609646-5.268167c0-0.136314 0.518256-0.655228 1.152412-1.152412 1.044414-0.818541 1.067462-0.795493 0.248921 0.248921-0.860687 1.097096-1.401332 1.445453-1.401333 0.903491z m3.344628-2.11056c0.031609-0.767177 0.187678-0.923246 0.397747-0.398405 0.190313 0.475452 0.166606 1.043756-0.052023 1.262385-0.218629 0.218629-0.37404-0.169898-0.345724-0.86398z m45.551866-1.920905c0.007244-1.448746 0.142241-1.963709 0.299627-1.144509 0.158045 0.8192 0.15146 2.004538-0.01317 2.634083s-0.2937-0.040828-0.286457-1.489574z m439.778038-5.981345c0.031609-0.767177 0.187678-0.923246 0.397746-0.398406 0.190313 0.475452 0.166606 1.043756-0.052023 1.262385-0.218629 0.218629-0.37404-0.169898-0.345723-0.863979zM755.981994 368.442444c-1.599547-1.629839-2.759861-2.963344-2.578768-2.963344 0.181093 0 1.637741 1.333505 3.237288 2.963344 1.599547 1.629839 2.759861 2.963344 2.578768 2.963344-0.181093 0-1.637741-1.333505-3.237288-2.963344z m-554.422575-14.542117c0.031609-0.767177 0.187678-0.923246 0.397746-0.398405 0.190313 0.475452 0.166606 1.043756-0.052023 1.262384-0.218629 0.218629-0.37404-0.169898-0.345723-0.863979z m536.694533-88.241801c0.031609-0.767177 0.187678-0.923246 0.397747-0.398405 0.190313 0.475452 0.166606 1.043756-0.052023 1.262384-0.218629 0.218629-0.374698-0.169898-0.345724-0.863979z m-0.582132-7.189073c0.01317-1.086559 0.160679-1.45138 0.327943-0.810639 0.167264 0.640741 0.156069 1.529744-0.024365 1.975563-0.180435 0.445819-0.316749-0.078364-0.303578-1.164924z m0-20.414148c0.01317-1.086559 0.160679-1.45138 0.327943-0.810639 0.167264 0.640741 0.156069 1.529744-0.024365 1.975563-0.180435 0.445819-0.316749-0.078364-0.303578-1.164924z m0.582132-7.298387c0.031609-0.767177 0.187678-0.923246 0.397747-0.397746 0.190313 0.474794 0.166606 1.043097-0.052023 1.261726-0.218629 0.218629-0.374698-0.169898-0.345724-0.86398z" p-id="1819" fill="#1843bf"></path><path d="M246.464617 1020.002778c-18.212054-1.401332-41.625106-6.357361-62.408025-13.209929-25.873945-8.53048-53.216391-22.691313-72.76656-37.685834-34.620419-26.55288-59.88194-59.562557-76.732831-100.269685-10.066809-24.319177-18.379318-57.131956-21.333443-84.209677-2.917248-26.7399-2.964003-27.593343-2.967953-53.998714-0.003293-25.833775 1.022683-45.347066 2.976514-56.632798 1.140558-6.585209 6.420579-28.433615 9.150806-37.864951 20.165886-69.661633 44.435673-125.298747 78.564178-180.105467 12.296561-19.747066 30.980116-45.177168 45.347725-61.723164 2.601158-2.994953 4.901371-5.653402 5.111439-5.906932 0.210727-0.253531 0.382601 12.192514 0.382601 27.657878 0 29.489224 0.400381 36.554495 3.340018 58.900085 5.750863 43.713934 17.549582 81.210114 35.489666 112.776314 30.904386 54.380656 78.816391 87.63201 141.934303 98.504848 22.003817 3.790446-6.410701 3.475673 348.841569 3.866177l325.464077 0.358235-5.79696 9.219293c-3.188558 5.070611-12.860913 20.48-21.49478 34.243086-8.633868 13.763087-17.006302 27.098135-18.605191 29.633441-1.598889 2.535305-5.598745 8.906495-8.887398 14.158199a3499.876589 3499.876589 0 0 1-9.746768 15.475241c-2.071707 3.259678-7.752108 12.297878-12.622529 20.084888-21.984062 35.146577-43.484111 69.410078-51.239511 81.656592-4.291581 6.778156-12.447362 19.765505-24.190107 38.523472-5.442017 8.692476-16.047496 25.583537-23.567804 37.535692-7.520309 11.952154-14.659992 23.361029-15.866403 25.353054-1.207069 1.992026-5.101561 8.215048-8.656257 13.828939l-6.462066 10.207074-273.260491 0.07112c-150.294225 0.039511-276.292322-0.161996-279.997819-0.447135zM332.74205 640.800103c-16.991815-5.808154-35.914413-16.150884-52.870667-28.895897-10.114223-7.603282-29.572857-27.075745-36.989778-37.016119-26.218351-35.139334-39.438817-71.491663-45.024391-123.801929-1.302554-12.203051-1.527768-47.717741-0.373381-58.93762 0.4096-3.984051 1.198508-11.688746 1.752982-17.121544 2.571524-25.200278 10.893911-68.21157 14.370902-74.271938 4.298166-7.490675 27.579514-47.312751 32.229988-55.127419 20.802017-34.958241 45.363529-75.671295 56.41351-93.509968 39.487547-63.74614 62.684605-99.63948 95.21422-147.326271L400.709968 0.034902 564.916764 0.01778c131.102292-0.014487 164.14292 0.148167 163.888072 0.805371-0.175167 0.453062-9.189001 15.639871-20.030889 33.749196-10.84123 18.109325-29.891581 49.965273-42.333674 70.790997a65039.096592 65039.096592 0 0 1-33.277037 55.645016c-5.860836 9.779035-19.332857 32.30045-29.938994 50.047589L568.003251 269.993569a223775.873729 223775.873729 0 0 1-37.011508 61.900965c-29.640026 49.553698-64.310493 107.572023-77.718637 130.057878-6.263851 10.503408-11.954788 19.986109-12.646894 21.072668-0.692105 1.086559-5.488772 9.087588-10.658819 17.780065a14277.200669 14277.200669 0 0 1-17.088617 28.645659c-4.227704 7.062637-21.377564 35.73332-38.109922 63.711897-21.454611 35.874243-30.753585 50.86613-31.545127 50.854276-0.617034-0.009219-5.334019-1.456648-10.481677-3.216216z m420.93512-52.309608c-26.274984-10.864278-53.777451-29.975871-74.099405-51.489749-24.889456-26.351372-40.32782-59.023228-44.439625-94.052589-1.538305-13.101273-1.082608-38.734199 0.914027-51.45814 7.115977-45.347725 26.213741-90.529502 60.619483-143.419267 3.013392-4.632036 5.56516-8.335558 5.670524-8.230194 0.105363 0.105363 0.528134 2.710472 0.93905 5.788398 0.410917 3.077927 1.645644 10.041127 2.74274 15.473924 9.517603 47.11717 27.325325 84.68052 51.37385 108.368175 14.465729 14.249075 32.970166 24.121621 51.187488 27.308862 4.766374 0.834346 32.045603 0.96605 200.025723 0.96605 117.552566 0 194.50666 0.239043 194.50666 0.603864 0 0.332553-1.379601 2.92515-3.065415 5.762058A3234.463691 3234.463691 0 0 0 1191.401281 418.819293c-3.072 5.251704-8.01815 13.697235-10.991372 18.767845-8.730012 14.887182-16.883817 28.824777-18.106032 30.950483-0.624936 1.086559-4.785471 8.198585-9.245634 15.804501a16702.309248 16702.309248 0 0 0-13.493093 23.048232c-5.148316 8.81957-7.486066 12.796378-19.745091 33.584566-2.990343 5.070611-7.06132 12.034469-9.04676 15.475241a2152.548095 2152.548095 0 0 1-8.85974 15.14598c-2.888273 4.889518-6.004394 10.223537-6.925006 11.853377-0.921271 1.629839-2.231727 3.924785-2.911979 5.099586l-1.236703 2.135583-165.947266-0.007902-165.947267-0.007903z m59.537534-220.476748c-25.167352-12.706819-44.043853-29.200792-57.023959-49.827643-13.691967-21.756872-20.32854-51.291534-18.10274-80.561471 0.969343-12.75094 2.249507-21.968916 4.464772-32.166771 5.055465-23.261592 13.346902-46.811617 25.030379-71.09194 8.881471-18.455048 12.448021-24.358688 31.4503-52.051468 3.354505-4.889518 16.877891-24.595756 30.050943-43.79164s24.265178-35.11892 24.648437-35.38562c0.836322-0.579498 190.681312-0.680911 190.681312-0.101413 0 0.386552-7.347118 12.760159-44.140656 74.339766-9.3049 15.574019-19.38027 32.46508-22.389052 37.535692-3.008782 5.070611-8.931519 14.997814-13.161857 22.06045a14317.462637 14317.462637 0 0 0-17.09652 28.645659c-5.172682 8.692476-16.132445 27.065209-24.355395 40.828296a33300.382539 33300.382539 0 0 0-25.724461 43.133119 20875.038127 20875.038127 0 0 1-20.42205 34.243087c-9.640746 16.120592-44.243385 74.15538-49.960005 83.792833-1.664082 2.805299-3.384797 5.101561-3.82469 5.103537-0.439892 0.001976-4.99554-2.114511-10.124758-4.704473z" p-id="1820" fill="#1843bf"></path></svg>